<mxfile host="app.diagrams.net" modified="2024-01-22T14:58:41.862Z" agent="Mozilla/5.0 (Macintosh; Intel Mac OS X 10_15_7) AppleWebKit/537.36 (KHTML, like Gecko) Chrome/120.0.0.0 Safari/537.36" etag="Ch4uGCUdbdcQlyL-0xQo" version="22.1.18" type="device">
  <diagram name="Seite-1" id="H4-vhZKG2-ZiEAjaF5Ar">
    <mxGraphModel dx="1880" dy="1133" grid="0" gridSize="10" guides="1" tooltips="1" connect="1" arrows="1" fold="1" page="0" pageScale="1" pageWidth="827" pageHeight="1169" math="0" shadow="0">
      <root>
        <mxCell id="0" />
        <mxCell id="1" parent="0" />
        <mxCell id="61W9xjHxhKiY_UhaflmL-2" style="edgeStyle=orthogonalEdgeStyle;rounded=0;orthogonalLoop=1;jettySize=auto;html=1;entryX=0.5;entryY=0;entryDx=0;entryDy=0;fontSize=12;startSize=8;endSize=8;exitX=0.5;exitY=1;exitDx=0;exitDy=0;endArrow=none;endFill=0;startArrow=circlePlus;startFill=0;" parent="1" source="fWU5p7PfZmMQM1h351pz-2" target="fWU5p7PfZmMQM1h351pz-5" edge="1">
          <mxGeometry relative="1" as="geometry" />
        </mxCell>
        <mxCell id="61W9xjHxhKiY_UhaflmL-3" style="edgeStyle=orthogonalEdgeStyle;rounded=0;orthogonalLoop=1;jettySize=auto;html=1;entryX=0.5;entryY=0;entryDx=0;entryDy=0;fontSize=12;startSize=8;endSize=8;endArrow=none;endFill=0;startArrow=circlePlus;startFill=0;" parent="1" source="fWU5p7PfZmMQM1h351pz-2" target="fWU5p7PfZmMQM1h351pz-6" edge="1">
          <mxGeometry relative="1" as="geometry">
            <Array as="points">
              <mxPoint x="-5" y="138" />
              <mxPoint x="256" y="138" />
            </Array>
          </mxGeometry>
        </mxCell>
        <mxCell id="fWU5p7PfZmMQM1h351pz-2" value="&lt;p style=&quot;margin:0px;margin-top:4px;text-align:center;&quot;&gt;&amp;lt;&amp;lt;requirement&amp;gt;&amp;gt;&lt;br&gt;&lt;b&gt;Safety&lt;/b&gt;&lt;/p&gt;&lt;hr&gt;&lt;p&gt;&lt;/p&gt;&lt;p style=&quot;margin:0px;margin-left:8px;text-align:left;&quot;&gt;text=&quot;The system shall detect and react to hazards in real-time&quot;&lt;br&gt;Id=&quot;1&quot;&lt;/p&gt;" style="shape=rect;overflow=fill;html=1;whiteSpace=wrap;align=center;fontSize=16;" parent="1" vertex="1">
          <mxGeometry x="-105" y="-174" width="200" height="206" as="geometry" />
        </mxCell>
        <mxCell id="fWU5p7PfZmMQM1h351pz-3" value="&lt;p style=&quot;margin:0px;margin-top:4px;text-align:center;&quot;&gt;&amp;lt;&amp;lt;requirement&amp;gt;&amp;gt;&lt;br&gt;&lt;b&gt;Route Planing&lt;/b&gt;&lt;/p&gt;&lt;hr&gt;&lt;p&gt;&lt;/p&gt;&lt;p style=&quot;margin:0px;margin-left:8px;text-align:left;&quot;&gt;text=&quot;The system shall select the optimal routes based on destination, traffic conditions and other factors&quot;&lt;br&gt;Id=&quot;2&quot;&lt;/p&gt;&lt;p style=&quot;margin:0px;margin-left:8px;text-align:left;&quot;&gt;&lt;br&gt;&lt;/p&gt;&lt;p style=&quot;margin:0px;margin-left:8px;text-align:left;&quot;&gt;&lt;br&gt;&lt;/p&gt;" style="shape=rect;overflow=fill;html=1;whiteSpace=wrap;align=center;fontSize=16;" parent="1" vertex="1">
          <mxGeometry x="208" y="-174" width="264" height="177" as="geometry" />
        </mxCell>
        <mxCell id="fWU5p7PfZmMQM1h351pz-5" value="&lt;p style=&quot;margin:0px;margin-top:4px;text-align:center;&quot;&gt;&amp;lt;&amp;lt;requirement&amp;gt;&amp;gt;&lt;br&gt;&lt;b&gt;Predictive Analysis&lt;/b&gt;&lt;/p&gt;&lt;hr&gt;&lt;p&gt;&lt;/p&gt;&lt;p style=&quot;margin:0px;margin-left:8px;text-align:left;&quot;&gt;text=&quot;The system shall utilize sensor data and machine learning to predict the behavior of other road users&quot;&lt;br&gt;Id=&quot;3&quot;&lt;/p&gt;" style="shape=rect;overflow=fill;html=1;whiteSpace=wrap;align=center;fontSize=16;" parent="1" vertex="1">
          <mxGeometry x="-392" y="243" width="242" height="189" as="geometry" />
        </mxCell>
        <mxCell id="fWU5p7PfZmMQM1h351pz-6" value="&lt;p style=&quot;margin:0px;margin-top:4px;text-align:center;&quot;&gt;&amp;lt;&amp;lt;requirement&amp;gt;&amp;gt;&lt;br&gt;&lt;b&gt;Real-time Adaptability&lt;/b&gt;&lt;/p&gt;&lt;hr&gt;&lt;p&gt;&lt;/p&gt;&lt;p style=&quot;margin:0px;margin-left:8px;text-align:left;&quot;&gt;text=&quot;The system shall continuously update and adapt to changing conditions&quot;&lt;br&gt;Id=&quot;4â€œ&lt;/p&gt;" style="shape=rect;overflow=fill;html=1;whiteSpace=wrap;align=center;fontSize=16;" parent="1" vertex="1">
          <mxGeometry x="129" y="243" width="255" height="191" as="geometry" />
        </mxCell>
        <mxCell id="61W9xjHxhKiY_UhaflmL-6" style="edgeStyle=orthogonalEdgeStyle;rounded=0;orthogonalLoop=1;jettySize=auto;html=1;entryX=0.5;entryY=1;entryDx=0;entryDy=0;fontSize=12;startSize=8;endSize=8;startArrow=none;startFill=0;endArrow=circlePlus;endFill=0;exitX=0.5;exitY=0;exitDx=0;exitDy=0;" parent="1" source="61W9xjHxhKiY_UhaflmL-4" target="fWU5p7PfZmMQM1h351pz-2" edge="1">
          <mxGeometry relative="1" as="geometry">
            <mxPoint x="-9" y="323" as="sourcePoint" />
          </mxGeometry>
        </mxCell>
        <mxCell id="61W9xjHxhKiY_UhaflmL-4" value="&lt;p style=&quot;margin:0px;margin-top:4px;text-align:center;&quot;&gt;&amp;lt;&amp;lt;requirement&amp;gt;&amp;gt;&lt;br&gt;&lt;b&gt;Functional Safety&lt;/b&gt;&lt;/p&gt;&lt;hr&gt;&lt;p&gt;&lt;/p&gt;&lt;p style=&quot;margin:0px;margin-left:8px;text-align:left;&quot;&gt;text=&quot;&lt;span style=&quot;caret-color: rgb(55, 65, 81); -webkit-text-size-adjust: 100%;&quot;&gt;Comply with safety standards and fail-safe mechanisms to ensure system reliability and redundancy.&lt;/span&gt;&quot;&lt;/p&gt;&lt;p style=&quot;margin:0px;margin-left:8px;text-align:left;&quot;&gt;Id=&quot;5.&quot;&lt;/p&gt;" style="shape=rect;overflow=fill;html=1;whiteSpace=wrap;align=center;fontSize=16;" parent="1" vertex="1">
          <mxGeometry x="-105" y="243" width="200" height="189" as="geometry" />
        </mxCell>
        <mxCell id="bklmaFfnvNQGVeUy5tc5-1" value="req [requirement] Trajektorienplanung [Autonomes Fahrzeug Subsysteme]" style="shape=umlFrame;whiteSpace=wrap;html=1;pointerEvents=0;width=258;height=35;" vertex="1" parent="1">
          <mxGeometry x="-431" y="-193" width="926" height="658" as="geometry" />
        </mxCell>
      </root>
    </mxGraphModel>
  </diagram>
</mxfile>
